<?xml version="1.0" encoding="UTF-8" standalone="no"?>
<!-- Created with Inkscape (http://www.inkscape.org/) -->

<svg
   width="82.26458mm"
   height="85.03038mm"
   viewBox="0 0 82.26458 85.030382"
   version="1.1"
   id="svg1"
   xmlns="http://www.w3.org/2000/svg"
   xmlns:svg="http://www.w3.org/2000/svg">
  <defs
     id="defs1" />
  <g
     id="layer1"
     transform="translate(-104.24656,-69.69037)">
    <path
       id="path139"
       d="m 174.29103,139.45588 -4.78526,-4.55951 -4.62199,4.26548 v 11.42998 l 4.44963,4.06055 4.87148,-4.46748 h -6.07739 v -3.46643 h 5.95858 v -3.50803 h -5.95858 v -3.75456 z"
       style="fill:#231815;fill-opacity:1;fill-rule:evenodd;stroke:none;stroke-width:2.97039" />
    <path
       id="path140"
       d="m 181.68429,139.77971 0.0168,3.77242 h 3.18428 v -4.09617 l -4.45562,-4.16453 -4.25058,4.16453 v 11.51318 l 4.0011,3.75161 4.7051,-4.53282 v -3.62683 h -3.25257 l 0.008,3.70109 h -2.4119 v -10.48248 z"
       style="fill:#231815;fill-opacity:1;fill-rule:evenodd;stroke:none;stroke-width:2.97039" />
    <path
       id="path141"
       d="m 124.86672,154.64943 h 3.29121 V 77.431213 c 0,0 -1.80011,0.323328 -3.29121,1.592137 z"
       style="fill:#231815;fill-opacity:1;fill-rule:evenodd;stroke:none;stroke-width:2.97039" />
    <path
       id="path142"
       d="m 138.37602,73.251861 c -0.77801,0.154086 -1.65748,0.478256 -1.65748,0.478256 l -0.006,33.497033 -3.2971,-32.591125 c -1.33668,0.406686 -3.27631,1.752539 -3.27631,1.752539 l 0.006,78.260866 h 3.40413 v -32.27621 l 3.16339,32.27621 h 3.22292 V 72.94891 c 0,0 -0.78727,0.15156 -1.55947,0.30312"
       style="fill:#231815;fill-opacity:1;fill-rule:evenodd;stroke:none;stroke-width:2.97039" />
    <path
       id="path143"
       d="m 119.6448,114.75413 c -3.25256,1.25053 -6.44871,4.15257 -8.86954,7.05764 -2.41494,2.89909 -4.54469,7.6963 -4.69625,10.45579 -0.1423,2.76538 0.24923,5.07633 2.00505,6.38034 1.76441,1.30703 4.12588,2.22784 5.83977,3.86747 1.90697,1.81493 1.60999,4.22684 0.76959,5.46845 -0.60624,0.90894 -1.95453,1.55653 -2.73574,1.55653 -0.89403,0 -1.87134,-0.26439 -1.87134,-0.26439 l -5.83978,5.37347 h 13.05193 c 0,0 3.78125,-2.63773 3.90603,-6.56162 0.13978,-4.65163 -2.95853,-7.53287 -5.96455,-9.25872 -1.78227,-1.01587 -3.16643,-0.59697 -4.22095,-2.05843 -1.30401,-1.81199 -0.90591,-6.60617 -0.0253,-8.86071 0.88216,-2.25453 2.07031,-4.90709 6.48138,-9.65673 3.05949,-3.30005 5.35562,-4.18524 5.35562,-4.18524 0,0 0.38059,-0.67697 -3.18427,0.68623"
       style="fill:#231815;fill-opacity:1;fill-rule:evenodd;stroke:none;stroke-width:2.97039" />
    <path
       id="path144"
       d="m 122.88844,142.45601 v -3.75456 c -3.92094,-3.19615 -7.17056,-7.18538 -9.52605,-11.70633 -0.27365,0.63908 -0.51951,1.25947 -0.7578,1.86242 -0.21639,0.54393 -0.41005,1.1644 -0.59108,1.84171 2.80706,4.61003 6.5111,8.61113 10.87459,11.75676"
       style="fill:#e50012;fill-opacity:1;fill-rule:evenodd;stroke:none;stroke-width:2.97039" />
    <path
       id="path145"
       d="m 146.3426,69.69037 c -22.18282,0 -40.16559,17.985709 -40.16559,40.16854 0,4.52692 0.76622,8.87552 2.15056,12.93312 0.66854,-1.16146 1.36934,-2.28721 2.10306,-3.34173 -0.81674,-3.06244 -1.26544,-6.27341 -1.26544,-9.59139 0,-20.531332 16.64314,-37.177335 37.17741,-37.177335 20.53428,0 37.17439,16.646003 37.17439,37.177335 0,10.04295 -3.98923,19.15609 -10.46168,25.84535 l 2.16242,2.06147 c 6.98641,-7.22697 11.29341,-17.06186 11.29341,-27.90682 0,-22.182831 -17.98268,-40.16854 -40.16854,-40.16854"
       style="fill:#e50012;fill-opacity:1;fill-rule:evenodd;stroke:none;stroke-width:2.97039" />
    <path
       id="path146"
       d="m 145.49606,109.05101 c 0.0842,-0.21135 0.42184,-0.1844 0.63571,-0.13051 0.21134,0.0505 0.23744,0.23744 0.0253,0.31491 -0.2105,0.0842 -0.39827,0.41594 -0.39827,0.41594 0,0 -0.23492,0.34438 -0.31491,0 -0.0421,-0.18439 -0.0253,-0.39237 0.0505,-0.60034 m -3.12188,2.54267 c 0.0337,-0.36543 0.22565,-0.69465 0.45721,-1.02775 0.23491,-0.33006 0.89403,-0.93276 1.30105,-1.09611 0.39238,-0.16672 0.68034,-0.27955 0.7216,-0.008 0.0337,0.26439 0,0.82011 0,0.82011 0,0 -0.30312,0.60034 -0.54393,0.7839 -0.23745,0.18692 -0.65676,0.41595 -0.68623,0.65676 -0.0168,0.23155 0.0421,0.53804 0.26438,0.62392 0.26439,0.10357 0.7157,-0.0674 0.7157,-0.0674 0,0 -0.0842,1.80003 -0.0505,2.6347 0.0253,0.83442 0.0505,2.19813 0.0253,2.59025 -0.0253,0.389 -0.0842,1.2832 -0.0253,1.56831 0.0589,0.29975 0.20798,0.36795 0.41848,0.36795 0.21387,0 0.42184,-0.20797 0.39826,-0.81421 -0.0337,-0.59698 -0.13051,-2.29614 -0.0337,-2.5308 0.11031,-0.23492 0.16083,-1.15253 0.11031,-1.62186 -0.0505,-0.47489 -0.20798,-1.04552 -0.0758,-1.31285 0.12798,-0.25513 0,-0.54393 0,-0.73086 0,-0.1785 -0.0589,-0.47236 0.26102,-0.60034 0.31827,-0.13051 0.21134,-0.10357 0.90304,-0.15746 0.67697,-0.0505 0.78727,-0.2105 0.73338,-0.5254 -0.0589,-0.31154 -0.52541,-0.59361 -0.52541,-0.86137 0,-0.26102 0.3949,-0.5734 0.5793,-0.72749 0.1844,-0.16335 0.3949,-0.36879 0.73928,-0.39237 0.34185,-0.0337 0.41847,0 0.46899,-0.1844 0.0589,-0.18103 0.16587,-0.29133 0.29723,-0.42521 0.13051,-0.12209 0.29133,-0.38648 0.23155,-0.69802 -0.0505,-0.31827 -0.10104,-0.49593 -0.73339,-0.57929 -0.62981,-0.0758 -0.8201,-0.0505 -1.37818,0.0253 -0.55235,0.0842 -0.8436,0.28796 -1.02783,0.18103 -0.18103,-0.10104 -0.18103,-0.30565 -0.18103,-0.54057 0,-0.23744 -0.0505,-0.58182 -0.0337,-0.76369 0.0337,-0.18103 0,-0.49341 0.10693,-0.83442 0.10357,-0.34185 0,-0.41848 0,-0.7839 0,-0.36543 0.16335,-0.62982 0.0842,-0.81422 -0.0842,-0.1785 -0.36795,-0.4631 -0.62981,-0.13051 -0.27365,0.33849 -0.31744,0.33849 -0.34438,0.97133 -0.0337,0.62392 0.0674,2.53375 0.0253,2.87535 -0.0589,0.33848 -0.0589,0.41595 -0.31154,0.57929 -0.26691,0.15409 -0.56161,0.28207 -0.74517,0.49342 -0.1844,0.2046 -0.44879,0.2046 -0.60877,0.36542 -0.15745,0.15746 -0.3149,0.47237 -0.39237,0.23155 -0.0842,-0.23155 0,-0.41594 0,-0.65086 0,-0.23492 -0.2526,-0.23155 -0.2526,-0.23155 0,0 -0.66265,0 -0.99213,0.9832 -0.33596,0.98026 -0.20208,1.01588 -0.29975,1.30999 -0.0977,0.30312 -0.36206,0.42773 -0.26439,0.65928 0.10104,0.22903 0.437,0.8495 0.69465,0.95643 0.26439,0.10104 0.53467,0.0337 0.60035,-0.55825"
       style="fill:#231815;fill-opacity:1;fill-rule:evenodd;stroke:none;stroke-width:2.97039" />
    <path
       id="path147"
       d="m 167.86901,111.50754 c 0.25849,0 0.96838,0.0758 1.15547,-0.13388 0.17851,-0.2046 0.55825,-0.73338 0.64413,-0.82852 0.0758,-0.10946 0.41258,-0.24671 0.41258,0.0951 0,0.34775 0.0505,1.60401 0.0505,1.60401 0,0 -0.15408,0.49005 -0.44289,0.72749 -0.29133,0.23744 -0.13051,0.36206 -0.26439,0.47236 -0.13387,0.10357 -0.55235,0.15156 -0.45131,0.41848 0.10694,0.26102 0.0505,0.41258 0.9832,0.20797 0.91778,-0.20797 1.10201,-0.86145 1.12871,-1.25652 0.0337,-0.39237 -0.0758,-1.14949 -0.0758,-1.51189 0,-0.36543 0.0253,-0.60624 -0.0758,-0.91492 -0.11031,-0.31743 -0.3688,-0.65676 -0.47826,-0.73675 -0.10693,-0.0842 -0.1844,-0.20797 -0.0253,-0.47236 0.15409,-0.25849 0.37132,-0.72749 0.55825,-0.94161 0.18103,-0.20461 0.62644,-0.389 0.76369,-0.55235 0.12798,-0.15409 0.15409,-0.22903 0.28796,-0.33259 0.13051,-0.10694 0.31828,-0.2105 0.24082,-0.37132 -0.0842,-0.15409 -0.37385,-0.20208 -0.37385,-0.20208 0,0 -0.54983,0.0758 -0.91778,0.46646 -0.24671,0.2585 -0.85253,1.48824 -1.18815,1.88027 -0.34438,0.3949 -0.97436,1.206 -1.32185,1.41987 -0.35028,0.20461 -0.68287,0.0758 -0.92082,0.44289 -0.24081,0.36206 0.0589,0.51952 0.31154,0.51952"
       style="fill:#231815;fill-opacity:1;fill-rule:evenodd;stroke:none;stroke-width:2.97039" />
    <path
       id="path148"
       d="m 178.71388,113.91356 c 1.18815,-0.57593 2.14466,-1.46736 2.64363,-2.20108 0.28207,-0.40668 0.47236,-0.389 0.62982,-0.83779 0.15998,-0.43952 -0.21387,-0.60034 -0.36206,-1.09308 -0.16925,-0.49594 -0.32417,-1.25652 -0.21724,-2.008 0.10104,-0.76622 -0.12798,-0.79317 -0.3208,-0.79317 -0.17851,0 -0.44542,0.18693 -0.31491,0.99803 0.0674,0.38648 0.0859,0.60034 -0.0253,1.25651 -0.10693,0.65087 -0.0253,1.24751 0.0842,1.56831 0.10104,0.31154 0,0.78138 -0.20797,1.01882 -0.21387,0.23492 -1.03364,0.86145 -1.5327,1.17628 -0.5052,0.31154 -0.79569,0.43952 -1.53269,0.47236 -0.73675,0.0253 -1.39612,0.0253 -2.00211,-0.21387 -0.61466,-0.23492 -0.18439,-0.27365 -0.66265,-0.3949 -0.10693,-0.0168 -0.52878,-0.27954 -0.52878,-0.64749 0,-0.36796 -0.0253,-1.3099 0.0758,-1.62481 0.10694,-0.31491 0.0337,-0.49594 0.49931,-0.7578 0.48162,-0.26102 0.8436,-0.49594 1.19109,-0.78138 0.34438,-0.29133 0.3688,-0.45131 0.5793,-0.62981 0.2105,-0.1844 0.66265,-0.49594 0.87324,-0.73675 0.20797,-0.22903 0.39826,-0.41258 0.10104,-0.54394 -0.28544,-0.13387 -0.54394,-0.18439 -0.94161,-0.0505 -0.40079,0.12462 -0.50773,0.52541 -0.85253,0.75444 -0.33595,0.23744 -0.46899,0.47236 -0.78979,0.44541 -0.31491,-0.0337 -0.28797,-0.23744 -0.28797,-0.44541 0,-0.20798 -0.18439,-0.34186 -0.34185,-0.22903 -0.16082,0.0977 -0.47489,0.19871 -0.63908,0.36206 -0.15408,0.15156 -0.31154,0.39237 -0.31154,0.39237 0,0 -0.0337,0.20798 0.0589,0.52289 0.0674,0.30901 0,0.62392 -0.23744,0.83442 -0.23745,0.2105 -0.63824,0.26775 -0.86735,0.4993 -0.24081,0.23155 -0.56161,0.36206 -0.0892,0.49931 0.47826,0.12798 0.71907,-0.16082 0.76959,0.0758 0.0674,0.29975 0,2.45359 0,2.45359 0,0 -0.2105,0.47236 0.44879,0.76032 0.65928,0.28544 0.18439,0.26102 0.87029,0.26102 0.68623,0 0.89706,0.0505 1.58026,0.10357 0.69213,0.0505 1.47334,0.10693 2.66443,-0.46899"
       style="fill:#231815;fill-opacity:1;fill-rule:evenodd;stroke:none;stroke-width:2.97039" />
    <path
       id="path149"
       d="m 148.90313,113.62837 c 0.0674,0.34185 -0.0421,1.10799 0.22565,1.08719 0.71318,-0.0505 0.90894,-0.88225 0.9832,-1.76441 0.0842,-0.89412 0.10946,-2.67335 0.0505,-3.06252 -0.0505,-0.39827 0.0253,-0.60287 -0.15745,-0.70728 -0.18103,-0.10357 -0.37469,0.1844 -0.37469,0.1844 0,0 -0.26439,0.57592 -0.23492,2.03772 0.0168,0.94456 -0.15156,1.17922 -0.31154,1.41094 -0.15998,0.24081 -0.26102,0.47489 -0.1844,0.81421"
       style="fill:#231815;fill-opacity:1;fill-rule:evenodd;stroke:none;stroke-width:2.97039" />
    <path
       id="path150"
       d="m 151.8854,107.68756 c 0.26103,-0.0505 0.86146,-0.38311 1.26839,-0.54394 0.2585,-0.10693 1.60696,-0.16082 1.89804,-0.0758 0.28796,0.0758 0.47236,0.57341 0.52541,1.2476 0.0505,0.68286 0.1364,0.7098 0.10356,1.41683 -0.0337,0.70728 0.16335,0.75443 0.18693,0.93866 0.0253,0.18692 -0.10694,1.25643 0,1.5476 0.10104,0.28207 0.23744,0.7839 0.12461,1.54161 -0.10104,0.75444 -0.51951,0.91484 -0.51951,0.91484 0,0 -0.39827,-0.1844 -0.63318,0.0253 -0.24082,0.20797 0,0.44542 0.12798,0.4993 0.12798,0.0505 0.16082,0.469 0.20797,0.65676 0.0589,0.17514 0.47489,0.28797 0.66855,0.1482 0.17851,-0.12799 0.469,-0.36543 0.51699,-0.65087 0.0589,-0.28796 0.45721,-1.14958 0.5313,-1.4852 0.0842,-0.34186 0.21134,-0.7637 0.29133,-0.97134 0.0842,-0.21134 -0.10356,-0.39489 0.0842,-0.52288 0.1844,-0.12798 0.13051,-0.389 -0.0253,-0.57593 -0.15998,-0.18103 0,-0.44541 -0.0758,-0.73338 -0.0842,-0.28544 -0.16671,-1.20305 -0.2105,-1.6456 -0.0589,-0.44289 -0.0842,-1.69907 -0.16082,-2.30211 -0.0842,-0.59698 -0.24081,-0.88815 -0.50183,-0.96241 -0.26691,-0.0842 -0.95053,0.0505 -1.19412,-0.0842 -0.23492,-0.13388 -0.38901,-0.0505 -0.65676,-0.10357 -0.25513,-0.0589 -0.41258,-0.10356 -0.8436,0.10357 -0.53215,0.26776 -0.70728,0.31154 -1.34266,0.6475 -0.29133,0.16335 -0.87324,0.34774 -0.87324,0.34774 -0.30564,0.15156 -0.47236,0.41258 -0.3149,0.60035 0.15408,0.18103 0.55572,0.0758 0.8201,0.0168"
       style="fill:#231815;fill-opacity:1;fill-rule:evenodd;stroke:none;stroke-width:2.97039" />
    <path
       id="path151"
       d="m 152.48541,110.20354 c -0.18103,-0.10694 0.16335,-0.34438 0.16335,-0.34438 0,0 0.18103,0.0505 0.18103,0.1844 0,0.13051 -0.15745,0.26102 -0.34438,0.15998 m 1.64266,5.07044 c 0.21724,-0.18103 0.30902,-0.0589 0.41595,-0.20461 0.10357,-0.16082 0.0505,-0.76369 -0.20797,-0.94456 -0.26776,-0.18692 -0.60624,-0.31154 -0.8703,-0.0842 -0.26438,0.23492 -0.41847,0.28544 -0.53803,0.11283 -0.0977,-0.18692 -0.0977,-0.24334 0.0421,-0.39826 0.12461,-0.16083 0.39237,-0.49931 0.44289,-0.70392 0.0505,-0.21134 0.12798,-0.36206 0.31743,-0.21134 0.3688,0.28797 0.2585,0.83442 0.70728,1.14655 0.45131,0.31491 0.61466,-0.0758 0.50183,-0.28796 -0.10104,-0.20208 -0.31154,-0.28207 -0.39489,-0.57003 -0.0842,-0.28797 -0.0253,-0.41848 -0.1844,-0.52289 -0.15746,-0.1103 -0.33596,-0.42436 -0.29133,-0.76369 0.0589,-0.33848 0.0337,-0.33848 0.26775,-0.62055 0.23745,-0.28797 0.52541,-0.9209 0.55235,-1.09907 0.0253,-0.18439 -0.3149,-0.26775 -0.45131,-0.10946 -0.12461,0.15746 -0.25512,0.37385 -0.34438,0.57341 -0.0842,0.21134 -0.33848,0.29133 -0.38647,0.0337 -0.0589,-0.2585 -0.21387,-0.76033 -0.10946,-1.01588 0.10946,-0.27028 0.26438,-0.44878 0.10946,-0.52541 -0.15998,-0.0842 -0.4008,-0.0842 -0.47826,-0.25849 -0.0758,-0.19029 -0.31491,-0.6896 -0.47826,-0.84032 -0.14819,-0.15998 -0.49593,0.0505 -0.41594,0.2585 0.0842,0.2105 0.39237,0.55235 0.28796,0.68286 -0.10357,0.13051 -0.24081,0.20797 -0.42521,0.20797 h -0.5313 c 0,0 -0.49931,0 -0.76033,0.47489 -0.17513,0.30312 -0.26102,0.52288 0.1103,0.52288 0.36543,0 0.68287,0.0505 0.52289,0.35954 -0.15746,0.31491 -0.47489,0.3949 -0.37133,0.60287 0.10104,0.2105 0.58856,0.33848 0.49931,0.57593 -0.0674,0.23744 -0.46899,0.73338 -0.60287,0.81084 -0.12799,0.0842 -0.36543,0.18103 -0.44289,0.39238 -0.0859,0.21386 -0.36796,0.55235 -0.18693,0.70728 0.18693,0.15408 0.65929,0.0842 1.0248,-0.18693 0.36795,-0.25512 0.73928,-0.437 1.004,-0.57593 0.26439,-0.12461 0.52878,-0.62644 0.34185,-0.67107 -0.18103,-0.0505 -0.34185,0.0421 -0.63234,0.20208 -0.28544,0.15745 -0.44289,0.0859 -0.18692,-0.25513 0.27028,-0.34437 0.4311,-0.4993 0.50183,-0.68286 0.0842,-0.1785 0.40416,-0.54646 0.53467,-0.57593 0.13388,-0.0253 0.34185,0.15998 0.28544,0.28797 -0.0505,0.13388 -0.50183,0.25849 -0.31491,0.41847 0.18692,0.15746 0.37132,-0.0589 0.42184,0.18103 0.0505,0.23745 -0.36543,1.18225 -0.63318,1.49413 -0.26102,0.31154 -0.44542,0.57593 -0.81674,0.78138 -0.36796,0.21387 -0.79569,0.50183 -0.92376,0.65928 -0.13388,0.15156 0.0253,0.59698 0.36795,0.52289 0.34775,-0.0842 0.52289,-0.0337 1.11094,0.0421 0.57593,0.0842 0.3949,-0.0253 0.73338,0.15998 0.34438,0.18103 0.52878,0.18103 0.87627,-0.10357"
       style="fill:#231815;fill-opacity:1;fill-rule:evenodd;stroke:none;stroke-width:2.97039" />
    <path
       id="path152"
       d="m 153.62304,107.81529 c -0.0253,0.18692 0,0.34774 0,0.34774 0,0 0.56414,0.34438 0.63571,0.62645 0,0 0.44542,0.23492 0.42774,-0.44542 -0.0168,-0.42436 -0.24671,-0.68286 -0.61803,-0.70728 -0.36206,-0.0168 -0.41595,0 -0.44542,0.17851"
       style="fill:#231815;fill-opacity:1;fill-rule:evenodd;stroke:none;stroke-width:2.97039" />
    <path
       id="path153"
       d="m 161.25097,107.74405 c 0.30312,0.15409 0.36543,0.47237 0.70728,0.54983 0.35027,0.0758 1.08416,-0.0337 1.61588,-0.0758 0.52289,-0.0505 0.94759,-0.26776 1.29214,-0.40079 0.34437,-0.12799 0.29722,-0.38059 0.49593,-0.54393 0.42774,-0.33596 0.31828,-0.47237 0.31828,-0.72749 0,-0.26439 -0.42184,-0.20798 -0.89707,-0.15998 -0.46899,0.0505 -0.79316,0.1844 -1.00097,0.23744 -0.20797,0.0505 -0.5052,-0.0505 -0.63907,0.0337 -0.12462,0.0674 -0.52878,0 -0.73339,0.0168 -0.21639,0.0253 -0.45131,0.31154 -0.62981,0.39237 -0.19029,0.0842 -0.55825,0 -0.76959,0.15156 -0.20797,0.15746 0.24081,0.52878 0.24081,0.52878"
       style="fill:#231815;fill-opacity:1;fill-rule:evenodd;stroke:none;stroke-width:2.97039" />
    <path
       id="path154"
       d="m 166.36604,113.96702 c 0.16082,-0.15745 -0.0505,-0.50183 -0.34186,-0.5254 -0.29133,-0.0253 -0.7098,0.0253 -0.7098,-0.1844 0,-0.20461 0.34185,-0.81085 0.62981,-1.09906 0.28797,-0.28207 0.58183,-0.70728 0.58183,-0.99213 0,-0.29134 -0.26776,-0.65676 -0.50184,-0.54646 -0.23155,0.10104 -0.5254,0.23744 -0.65928,0.33848 -0.13051,0.10104 -0.36543,0.15746 -0.68286,0.34185 -0.31744,0.17851 -0.28797,0.23492 -0.6896,0.31491 -0.3949,0.0758 -0.52541,0.0758 -0.78727,0.15409 -0.27028,0.0758 -0.39827,-0.29133 -0.7157,-0.23492 -0.3208,0.0505 -0.5793,0.34185 -0.82264,0.13051 -0.23155,-0.21387 -0.20208,-0.54983 -0.12798,-0.84032 0.0842,-0.28207 0.42437,-0.80832 0.42437,-1.06639 0,-0.26691 0.0505,-0.18692 0.1844,-0.41847 0.13051,-0.23155 0.29133,-0.63234 -0.0589,-0.60624 -0.33596,0.0253 -1.03364,0.70728 -1.03364,0.70728 0,0 -0.12799,0.61803 -0.27955,1.20591 -0.16924,0.60624 -0.35616,1.20305 -0.52877,1.62186 -0.63571,1.54162 -0.6475,2.07932 -1.96346,4.14963 -1.31883,2.06736 -1.80895,2.75056 -2.26338,3.30013 -0.44542,0.54394 -0.63234,0.89109 -0.89412,1.22975 -0.26776,0.33595 0,0.65086 0.26102,0.49593 0.26439,-0.16082 0.60287,-0.83442 0.84949,-0.94161 0.23745,-0.10693 0.44542,-0.49593 0.54983,-0.68286 0.10356,-0.18103 0.52877,-0.54646 0.63318,-0.70728 0.10357,-0.15156 0.26692,-0.57003 0.52878,-0.90894 0.26691,-0.34185 0.47236,-0.73338 0.84654,-1.2832 0.36796,-0.54983 0.47573,-1.12576 0.7637,-1.46441 0.29133,-0.33848 0.62981,-1.12575 0.74264,-1.30106 0.10104,-0.18692 0.2585,-0.65676 0.2585,-0.65676 l -0.0505,1.25054 c 0,0 0.18103,0.0842 0.39237,0.0505 0.21387,-0.0253 0.42184,0 0.61213,0.10357 0.18103,0.10693 0.60287,-0.3688 0.7898,-0.57593 0.18103,-0.20461 0.15156,-0.469 0.0505,-0.65339 -0.10104,-0.17851 -0.29133,-0.54394 -0.0842,-0.70728 0.21134,-0.15746 0.48162,-0.0758 0.76369,-0.15746 0.29133,-0.0758 0.44879,-0.10356 0.79569,-0.0758 0.34185,0.0168 0.60287,0 0.41848,0.44542 -0.18103,0.44289 -0.76622,0.65087 -0.81674,0.97125 -0.0505,0.31154 0,0.69465 0.60624,0.67444 0.60876,-0.0253 0.58519,-0.33596 1.13173,-0.41932 0.55572,-0.0842 1.03372,-0.28544 1.18814,-0.44289"
       style="fill:#231815;fill-opacity:1;fill-rule:evenodd;stroke:none;stroke-width:2.97039" />
    <path
       id="path155"
       d="m 148.00597,149.64442 h -2.9555 v -10.18846 h 2.9555 z m -6.12193,-10.51818 v 11.13595 l 4.38127,4.38733 5.03482,-5.0051 v -10.60137 l -4.58326,-4.24764 z"
       style="fill:#231815;fill-opacity:1;fill-rule:evenodd;stroke:none;stroke-width:2.97039" />
    <path
       id="path156"
       d="m 159.49843,149.68298 h -2.95559 v -10.23005 h 2.95559 z m -6.12496,-10.55674 v 15.52328 h 3.16643 l -0.003,-3.81999 3.00308,2.86348 3.25256,-2.88722 v -11.76274 l -4.59227,-4.24764 z"
       style="fill:#231815;fill-opacity:1;fill-rule:evenodd;stroke:none;stroke-width:2.97039" />
  </g>
</svg>
