<?xml version="1.0" encoding="utf-8"?>
<!-- Generator: Adobe Illustrator 26.2.1, SVG Export Plug-In . SVG Version: 6.00 Build 0)  -->
<svg version="1.1" id="Layer_1" xmlns="http://www.w3.org/2000/svg" xmlns:xlink="http://www.w3.org/1999/xlink" x="0px" y="0px"
	 viewBox="0 0 272.9 151.9" style="enable-background:new 0 0 272.9 151.9;" xml:space="preserve">
<style type="text/css">
	.st0{fill:#9C865C;}
	.st1{clip-path:url(#SVGID_00000134243071015109765410000016660435868873170822_);}
	.st2{fill:#132249;}
	.st3{fill:#FFFFFF;}
</style>
<g id="a">
</g>
<g id="e">
	<path class="st0" d="M272.9,71.7l-82.9,28c0.3,8.7-2.2,15-5,19.3c-0.6,1-2.8,4.2-6.7,7.2c-3.9,3.1-8.2,4.9-17,7.1
		c-15.5,3.8-18.7,2-26.1,5.5c-6.1,2.9-10.1,7-12.4,9.7c-0.3-0.3-0.8-0.8-1.4-1.3c-0.4-0.3-5.8-6-13.2-8.8
		c-3.6-1.3-12.5-2.7-19.8-4.1c-7.5-1.4-12.6-2.9-16.3-4.4L0,151.9l18-56.2l37.7-6.9c3.7-16.7,14.2-19.9,14.2-38.7
		c0-10.5-9.5-21.2-9.5-21.2L39.8,0l34.9,11.4c0,0,11.7,6.5,24.4,5.1S122.9,9,122.9,9s14.5,7.8,24.8,7.5c16.5-0.5,23.1-6.1,23.1-6.1
		l14.3,15.9c0,0-4.5,4.4-7.3,13.1L272.9,71.7L272.9,71.7z M180.1,69.1l29.8-3.5l-34.1-9.1C176.3,61.6,178,65.3,180.1,69.1z
		 M177.1,123.4c2.9-2.2,12.2-10.6,9.5-29.5c-3.1-22.1-16.2-25.6-14.8-43.3c1.2-14.9,9-23.9,9-23.9L170,15.1c0,0-6.4,4.5-22.3,5
		c-9.8,0.3-25-7.1-25-7.1s-11.2,5.8-23.4,7.1S76,15.3,76,15.3L65.5,28.5c0,0,7.6,8.9,8.1,23.2C74.2,71.5,60,73,58.3,95.6
		c-0.6,7.8,0.4,13.1,2.4,17.9c1.8,4.2,4.1,8.1,9.9,11.4c3.9,2.2,9.4,4.3,20.3,6.3c7,1.3,15.5,2.6,19,3.8c7.7,2.9,12.6,8.3,12.6,8.3
		s8.3-7,15.2-9.1S167,131.2,177.1,123.4L177.1,123.4z"/>
</g>
<g>
	<g>
		<defs>
			<rect id="SVGID_1_" x="53.8" y="8.8" width="137.7" height="143.2"/>
		</defs>
		<clipPath id="SVGID_00000004508358774463848250000002586021596857644449_">
			<use xlink:href="#SVGID_1_"  style="overflow:visible;"/>
		</clipPath>
		<g style="clip-path:url(#SVGID_00000004508358774463848250000002586021596857644449_);">
			<path class="st0" d="M-12.9,12.9c-11.5,5.9-18,7.6-27.7,7.6c-9.8,0-15.5-2.9-20.8-6.1l-14.7,16.4c1.7,2.4,5.7,8.6,7.4,12.4
				c1.7,3.8,2.6,9.4,2.7,12.2s0,7.7-1,10.4c-1.2,3.3-2,5.2-5.7,10.9c-4.5,6.8-6.9,14.9-7.5,19.2c-0.7,4.3-1.4,8.9-0.1,18.5
				c1.3,9.7,7.1,16.4,12.3,19.4c6.4,3.8,10.7,4.9,16.1,6.2c7.2,1.8,12.3,1.9,20.4,3.7c8,1.8,13.8,6.8,18.6,11.1
				c4.9-4.3,10.6-9.3,18.6-11.1c8.1-1.8,13.2-1.9,20.4-3.7c5.3-1.4,9.7-2.4,16.1-6.2c5.1-3.1,11-9.8,12.3-19.4
				c1.3-9.7,0.6-14.2-0.1-18.5c-0.7-4.3-3-12.4-7.5-19.2c-3.7-5.7-4.5-7.6-5.7-10.9c-1-2.6-1.1-7.6-1-10.4c0.1-2.8,1.1-8.4,2.7-12.3
				c1.7-3.8,5.7-10,7.4-12.4L35.6,14.3c-5.3,3.3-11,6.1-20.8,6.1C5,20.5-1.4,18.8-12.9,12.9L-12.9,12.9L-12.9,12.9z"/>
		</g>
	</g>
</g>
<path id="g" class="st2" d="M186.5,91.8L186.5,91.8c-0.8-3.7-1.8-6.7-2.6-9c-0.7-1.7-1.4-3.7-2.8-6.2c-0.8-1.4-0.9-1.5-2.5-4.2
	c-1.1-1.9-2-3.6-2.5-4.5c-0.4-0.8-0.6-1.2-0.8-1.5c0,0-1.1-2.2-1.9-4.1c-0.9-2.2-1.4-6.7-1.2-11.9c0.1-2.8,1.1-9.1,3.1-13.7
	c1.4-3.2,4.1-7.6,6-10.6l-10.7-11.9c-4.8,2.7-10.8,5.1-20.1,5.1c-9.9,0.1-16.9-1.7-27.8-7.2c-11,5.5-17.9,7.2-27.8,7.2
	c-9.3,0-15.3-2.4-20.1-5.1l-11,12.6c0.4,0.4,0.9,1.1,1.5,1.8c0.7,1,3.1,4.1,4.9,8.1c2.6,5.8,3,11.1,3.1,13.7
	c0.1,1.8,0.2,8.1-1.2,11.9c-0.6,1.5-1,2.7-1.7,4.1c-1.5,3.2-2.6,4.5-4.5,7.6s-3.8,6.2-5.3,10.3c-1,2.9-1.5,5.4-1.8,7.1l-0.1,0.5
	c-0.2,1.4-0.4,3.3-0.5,5.6c-0.1,3.3,0,7.4,0.6,11.8c1.1,8.4,6.2,14.2,10.5,16.7c5.9,3.5,9.9,4.5,15,5.8h0.1
	c3.7,0.9,6.8,1.4,10.1,1.9c3.1,0.5,6.3,0.9,10.2,1.8c7.6,1.7,13.3,5.9,17.9,9.8c4.6-3.9,10.3-8.2,17.9-9.8c3.9-0.9,7.1-1.3,10.2-1.8
	c3.3-0.5,6.5-1,10.1-1.9h0.1c5.1-1.3,9.1-2.3,15-5.8c4.3-2.6,9.4-8.3,10.5-16.7C187.8,100.1,187.1,95.9,186.5,91.8L186.5,91.8z"/>
<g>
	<path class="st0" d="M108.6,46.4c-0.1,0.3-0.2,0.4-0.5,0.4L106,47l-0.7-8.1l2.1-0.2c0.3,0,0.5,0,0.5,0.1c0.1,0.1,0.3,0.4,0.4,1.8
		l0.3,3.9C108.9,45.5,108.8,46.1,108.6,46.4L108.6,46.4z M113.9,40.1c-0.3-3.3-1.1-5.3-2.4-6.5c-1.1-0.9-2.5-1.3-4.4-1.1l-6.6,0.6
		l-0.9,0.1l0.1,1l1.6,18.6l0.1,1l0.9-0.1l7.1-0.6c5-0.4,5.4-4.8,5-9L113.9,40.1L113.9,40.1L113.9,40.1z"/>
	<path class="st0" d="M133.5,32.7l-0.1-0.8h-0.8l-5.3-0.2h-0.8l-0.2,0.7l-4.7,18.5l-0.3,1.1l0.6,0.1l3.2,0.2h1.7l0.2-0.8l0.6-2.4
		l3.2,0.1l0.4,2.5l0.1,0.8h0.8l3.6,0.2l1.2,0.1l-0.2-1.2L133.5,32.7L133.5,32.7z M130,43.6h-0.9l0.6-2.4L130,43.6L130,43.6L130,43.6
		z"/>
	<path class="st0" d="M163.8,46.5l-0.1,2.4l-0.9-0.2L163.8,46.5L163.8,46.5z M168.7,38l-5.1-1.4l-0.7-0.2l-0.3,0.7L154,54.2
		l-0.5,1.1l1.1,0.3l3.5,0.9l0.7,0.2l0.3-0.7l1.1-2.2l3.1,0.8l-0.1,2.5v0.8l0.7,0.2l3.4,0.9l1.1,0.3l0.1-1.2l0.9-19.1v-0.8L168.7,38
		L168.7,38L168.7,38z"/>
	<path class="st0" d="M79.6,91H69.3v24.8h6.8V110h3.4c6.1,0,7.3-3.2,7.3-9.6c0-3.8-0.7-6.1-2.1-7.6C83.6,91.6,81.9,91,79.6,91
		L79.6,91z M79.7,102.5c-0.1,0.1-0.4,0.2-1.1,0.2h-2.4v-4.5h2.4c0.7,0,0.9,0.1,1,0.2c0.3,0.3,0.3,1.5,0.3,1.9
		C79.9,100.9,79.9,102.2,79.7,102.5L79.7,102.5L79.7,102.5z"/>
	<path class="st0" d="M101.1,106c0,1.3-0.1,2.1-0.5,2.4c-0.3,0.3-1,0.4-2.1,0.4c-1,0-1.7-0.1-2-0.3c-0.3-0.3-0.5-1.1-0.5-2.5v-5.1
		c0-1.4,0.2-2.2,0.5-2.5s1-0.3,2-0.3c1.1,0,1.8,0.1,2.1,0.4s0.4,1.1,0.4,2.4v5.1C101.1,106,101.1,106,101.1,106z M98.6,90.8
		c-2.4,0-5.3,0.3-7.3,2.2c-1.5,1.5-2.2,3.9-2.2,7.1v6.5c0,3.3,0.7,5.6,2.2,7.1c2,2,4.9,2.2,7.3,2.2c4.7,0,9.5-1.1,9.5-9.4V100
		c0-3.3-0.7-5.6-2.2-7.1C103.9,91,101,90.8,98.6,90.8L98.6,90.8z"/>
	<path class="st0" d="M84,67.5c0.1-0.1,0.5-0.3,1.8-0.3c0.7,0,1.5,0,1.6,0.2c0,0,0.2,0.2,0.2,1.2v0.9c-0.2,0-0.4,0-0.6-0.1l-2-0.2
		l0,0c-0.4,0-0.9-0.1-1-0.2c0,0-0.1-0.2-0.1-0.9C83.9,68,83.9,67.6,84,67.5L84,67.5L84,67.5z M87.8,78.4c-0.2,0.2-1.4,0.2-2,0.2
		c-0.5,0-1.7,0-1.9-0.3c-0.1-0.1-0.2-0.4-0.2-1.4V76c0.3,0,0.7,0.1,1,0.1h0.5l1.1,0.1h0.2c0.6,0,1.3,0.1,1.5,0.2
		c0,0.1,0.1,0.4,0.1,1C88,78.1,87.8,78.3,87.8,78.4L87.8,78.4L87.8,78.4z M94.8,77c0-5.5-1.7-6.9-6.7-7.5h6.2v-1.9
		c0-2.6-0.6-4.5-1.7-5.7c-1.7-1.7-4.2-1.7-6.7-1.7c-2.8,0-5.3,0.1-7,1.8c-1.2,1.3-1.8,3.2-1.8,6.2c0,6.3,2.5,7.3,6,7.7h-6v1
		c0,3.4,0.6,5.6,1.9,6.9c1.7,1.7,4.2,1.7,6.9,1.7c3.6,0,5.9-0.7,7.3-2.1c1.7-1.7,1.7-4,1.7-6.2L94.8,77L94.8,77L94.8,77z"/>
	<path class="st0" d="M127,61.2l-0.2-0.7h-9l-0.2,0.7L112,84.1l-0.3,1.2h7.1l0.2-0.7l0.7-3.2h5.2l0.8,3.2l0.2,0.7h7l-0.3-1.2
		L127,61.2L127,61.2L127,61.2z M123.6,75h-2.2l1.1-4.9L123.6,75L123.6,75z"/>
	<path class="st3" d="M90,106.6v-6.5c0-7.1,3.6-8.4,8.6-8.4s8.6,1.3,8.6,8.4v6.5c0,7.1-3.6,8.4-8.6,8.4
		C93.6,115.1,90,113.7,90,106.6L90,106.6z M102.1,106v-5.2c0-3.4-0.9-3.7-3.5-3.7s-3.4,0.3-3.5,3.7v5.2c0.1,3.4,0.9,3.8,3.5,3.8
		S102.1,109.4,102.1,106L102.1,106z"/>
	<path class="st3" d="M100.5,34l6.6-0.6c3.6-0.3,5.4,1.5,5.9,6.8l0.3,3.9c0.4,5.1-0.5,7.6-4.1,7.9l-7.1,0.6L100.5,34L100.5,34
		L100.5,34z M105.2,48l3-0.3c1.3-0.1,1.7-1.4,1.5-3.3l-0.3-3.9c-0.2-2.4-0.8-2.9-2-2.8l-3,0.3L105.2,48L105.2,48L105.2,48z"/>
	<polygon class="st0" points="78.1,38.6 77.8,37.7 76.9,38 73.6,39.1 72.7,39.4 73,40.3 78.6,58.1 78.9,59 79.8,58.7 83.1,57.7 
		84,57.4 83.7,56.5 	"/>
	<polygon class="st0" points="96.5,34.5 96.3,33.5 95.4,33.7 92,34.4 91,34.6 91.2,35.5 92.7,42.5 89.4,35.7 89.1,35 88.4,35.1 
		82.6,36.3 81.6,36.5 81.8,37.4 85.4,55.8 85.6,56.7 86.5,56.5 89.9,55.8 90.9,55.7 90.7,54.7 89.2,47.8 92.5,54.6 92.8,55.3 
		93.5,55.1 99.3,54 100.3,53.8 100.1,52.8 	"/>
	<polygon class="st0" points="120.3,32.6 120.3,31.6 119.4,31.6 115.9,31.7 114.9,31.7 115,32.7 115.3,51.4 115.4,52.4 115.6,52.2 
		119.1,52.1 120.7,52.2 120.7,51.3 	"/>
	<polygon class="st0" points="155.6,34.6 154.7,34.5 151.2,34 150.2,33.9 150.1,34.8 149.3,42 148.4,34.3 148.3,33.6 147.5,33.5 
		141.7,32.7 140.8,32.6 140.6,33.5 138.1,52.1 138,53 138.9,53.1 142.4,53.6 143.4,53.7 143.5,52.8 144.3,45.8 145.2,53.3 145.3,54 
		146,54.1 151.9,54.9 152.8,55.1 153,54.1 155.5,35.6 	"/>
	<polygon class="st0" points="117.8,108.6 117.8,91.9 117.8,91 116.9,91 111.9,91 111,91 111,91.9 111,114.9 111,115.8 111.9,115.8 
		124.6,115.8 125.6,115.8 125.6,114.9 125.6,109.5 125.6,108.6 124.6,108.6 	"/>
	<polygon class="st0" points="128.3,91 127.3,91 127.3,91.9 127.3,114.9 127.3,115.8 128.3,115.8 133.2,115.8 134.1,115.8 
		134.1,114.9 134.1,91.9 134.1,91 133.2,91 	"/>
	<path class="st0" d="M148.9,105.2H148v1.6c0,1.1-0.2,1.5-0.3,1.6c-0.3,0.3-1,0.3-1.8,0.3c-0.9,0-1.4-0.1-1.7-0.4
		c-0.4-0.4-0.5-1.7-0.5-3.4v-3.6c0-1.2,0-2.4,0.3-2.9c0.1-0.2,0.3-0.5,1.8-0.5c1.7,0,2,0.2,2.1,1.3v1.8h7v-1.9
		c-0.1-7.9-3.4-8.5-8.5-8.5c-2.8,0-5.6,0.3-7.5,2.1c-1.5,1.5-2.2,3.9-2.2,7.5v5.9c0,3.7,0.7,6.2,2.2,7.7c1.8,1.8,4.3,2,7.5,2h0.1
		c2.2,0,4.5,0,6.4-2c2-2,2-4.7,2-7.2V105h-6V105.2z"/>
	<polygon class="st0" points="171.9,108.9 164.2,108.9 164.2,106.3 171.2,106.3 172.2,106.3 172.2,105.4 172.2,101.1 172.2,100.2 
		171.2,100.2 164.2,100.2 164.2,97.9 171.7,97.9 172.7,97.9 172.7,96.9 172.7,91.9 172.7,91 171.7,91 158.4,91 157.4,91 157.4,91.9 
		157.4,114.9 157.4,115.8 158.4,115.8 171.9,115.8 172.8,115.8 172.8,114.9 172.8,109.9 172.8,108.9 	"/>
	<polygon class="st0" points="112.8,67.7 112.8,66.8 112.8,61.5 112.8,60.5 111.8,60.5 97.2,60.5 96.2,60.5 96.2,61.5 96.2,66.8 
		96.2,67.7 97.2,67.7 101,67.7 101,84.4 101,85.3 101.9,85.3 106.8,85.3 107.8,85.3 107.8,84.4 107.8,67.7 111.8,67.7 	"/>
	<polygon class="st0" points="132.4,60.5 131.5,60.5 131.5,61.5 131.5,66.8 131.5,67.7 132.4,67.7 136.2,67.7 136.2,84.4 
		136.2,85.3 137.2,85.3 142.1,85.3 143.1,85.3 143.1,84.4 143.1,67.7 147.1,67.7 148.1,67.7 148.1,66.8 148.1,61.5 148.1,60.5 
		147.1,60.5 	"/>
	<polygon class="st0" points="164.1,78.4 156.5,78.4 156.5,75.9 163.4,75.9 164.4,75.9 164.4,74.9 164.4,70.7 164.4,69.7 
		163.4,69.7 156.5,69.7 156.5,67.4 163.9,67.4 164.9,67.4 164.9,66.5 164.9,61.5 164.9,60.5 163.9,60.5 150.6,60.5 149.6,60.5 
		149.6,61.5 149.6,84.4 149.6,85.3 150.6,85.3 164.1,85.3 165,85.3 165,84.4 165,79.4 165,78.4 	"/>
	<path class="st3" d="M70.3,114.9V92h9.3c4.6,0,6.3,2.4,6.3,8.4c0,6.5-1.2,8.7-6.3,8.7h-4.4v5.9L70.3,114.9L70.3,114.9z M78.7,103.7
		c2-0.1,2.2-0.4,2.2-3.3c0-2.4-0.3-3.1-2.2-3.1h-3.4v6.4H78.7z"/>
	<polygon class="st3" points="116.9,109.5 124.6,109.5 124.6,114.9 111.9,114.9 111.9,91.9 116.9,91.9 	"/>
	<polygon class="st3" points="133.2,114.9 128.3,114.9 128.3,91.9 133.2,91.9 	"/>
	<path class="st3" d="M154,106.2v0.7c0,2.5,0,4.8-1.7,6.5c-1.7,1.7-3.7,1.7-5.9,1.7c-5,0-8.7-0.3-8.7-8.7v-5.9
		c0-7.6,3.3-8.7,8.7-8.7c5.1,0,7.5,0.6,7.6,7.5v0.9h-5.1v-0.9c-0.2-2.1-1.3-2.2-3-2.2c-2.8,0-3.1,1.1-3.1,4.3v3.6
		c0,3.4,0.1,4.7,3.1,4.7c2,0,3-0.2,3-2.9v-0.7L154,106.2L154,106.2z"/>
	<polygon class="st3" points="163.3,101.1 171.2,101.1 171.2,105.4 163.3,105.4 163.3,109.9 171.9,109.9 171.9,114.9 158.4,114.9 
		158.4,91.9 171.7,91.9 171.7,96.9 163.3,96.9 	"/>
	<path class="st3" d="M87,70.4c5.5,0.5,6.8,1.3,6.8,6.6c0,3.8,0.1,7.5-8,7.5c-4.7,0-7.9-0.1-7.9-7.6h4.7c0,2.4,0.7,2.6,3.1,2.6
		c2.3,0,3.1-0.2,3.1-2.1c0-2-0.3-2-2.6-2.1l-1.1-0.1c-4.6-0.4-7.2-0.4-7.2-6.9c0-6.6,3-7,7.8-7c4.1,0,7.5,0.1,7.5,6.4v0.9h-4.7
		c0-2.4-0.8-2.4-2.8-2.4c-2.7,0-2.9,0.7-2.9,2c0,1.8,0.7,1.9,2,2L87,70.4L87,70.4L87,70.4z"/>
	<polygon class="st3" points="106.8,84.4 101.9,84.4 101.9,66.8 97.2,66.8 97.2,61.5 111.8,61.5 111.8,66.8 106.8,66.8 	"/>
	<path class="st3" d="M119.1,80.4l-0.9,3.9H113l5.6-22.9h7.5l5.6,22.9h-5l-1-3.9H119.1L119.1,80.4z M122.4,66L122.4,66l-2.3,9.9h4.6
		L122.4,66L122.4,66z"/>
	<polygon class="st3" points="142.1,84.4 137.2,84.4 137.2,66.8 132.4,66.8 132.4,61.5 147.1,61.5 147.1,66.8 142.1,66.8 	"/>
	<polygon class="st3" points="155.5,70.7 163.4,70.7 163.4,74.9 155.5,74.9 155.5,79.4 164.1,79.4 164.1,84.4 150.6,84.4 
		150.6,61.5 163.9,61.5 163.9,66.5 155.5,66.5 	"/>
	<polygon class="st3" points="82.8,56.7 79.5,57.8 73.9,40 77.2,38.9 	"/>
	<polygon class="st3" points="89.7,54.9 86.3,55.6 82.8,37.2 88.5,36.1 95,49.4 95.1,49.4 92.2,35.3 95.6,34.7 99.1,53 93.3,54.2 
		86.9,40.8 86.8,40.8 	"/>
	<polygon class="st3" points="119.8,51.1 116.4,51.2 116,32.5 119.5,32.4 	"/>
	<path class="st3" d="M126.8,48.2l-0.8,3.2l-3.6-0.2l4.7-18.5l5.7,0.2l3.2,18.9l-4-0.2l-0.5-3.2L126.8,48.2L126.8,48.2z M129.7,36.6
		L129.7,36.6l-2,8l3.2,0.1L129.7,36.6L129.7,36.6L129.7,36.6z"/>
	<polygon class="st3" points="142.6,52.6 139.2,52.2 141.7,33.6 147.5,34.4 149.3,49.2 149.5,49.2 151.2,34.9 154.6,35.4 152.1,54 
		146.2,53.1 144.5,38.4 144.4,38.4 	"/>
	<path class="st3" d="M159.7,52.7l-1.4,2.9l-3.5-0.9l8.5-17.1l5.1,1.4l-0.9,19.1l-3.4-0.9l0.2-3.3L159.7,52.7L159.7,52.7L159.7,52.7
		z M165,41.9L165,41.9l-3.6,7.4l3.1,0.8L165,41.9L165,41.9L165,41.9z"/>
</g>
</svg>
